HIERARCHY
ROOT Hips
{
    OFFSET 0.000000 0.000000 0.000000
    CHANNELS 6 Xposition Yposition Zposition Zrotation Xrotation Yrotation
    JOINT Spine
    {
        OFFSET -0.000000 7.755141 0.000000
        CHANNELS 3 Zrotation Xrotation Yrotation
        JOINT Spine1
        {
            OFFSET -0.000000 20.093737 0.000000
            CHANNELS 3 Zrotation Xrotation Yrotation
            JOINT Neck
            {
                OFFSET -0.000000 21.985235 0.000000
                CHANNELS 3 Zrotation Xrotation Yrotation
                JOINT Head
                {
                    OFFSET -0.000000 14.659108 1.891498
                    CHANNELS 3 Zrotation Xrotation Yrotation
                    End Site
                    {
                        OFFSET -0.000000 18.914978 0.000000
                    }
                }
            }
            JOINT LeftShoulder
            {
                OFFSET 3.789246 18.853123 -0.208244
                CHANNELS 3 Zrotation Xrotation Yrotation
                JOINT LeftArm
                {
                    OFFSET 9.468541 0.000000 0.000000
                    CHANNELS 3 Zrotation Xrotation Yrotation
                    JOINT LeftForeArm
                    {
                        OFFSET 31.465202 0.000000 0.000000
                        CHANNELS 3 Zrotation Xrotation Yrotation
                        JOINT LeftHand
                        {
                            OFFSET 26.964474 0.000000 0.000000
                            CHANNELS 3 Zrotation Xrotation Yrotation
                            End Site
                            {
                                OFFSET 14.186234 0.000000 0.000000
                            }
                        }
                    }
                }
            }
            JOINT RightShoulder
            {
                OFFSET -3.772747 18.853123 -0.208244
                CHANNELS 3 Zrotation Xrotation Yrotation
                JOINT RightArm
                {
                    OFFSET -9.468541 0.000000 0.000000
                    CHANNELS 3 Zrotation Xrotation Yrotation
                    JOINT RightForeArm
                    {
                        OFFSET -31.465202 0.000000 0.000000
                        CHANNELS 3 Zrotation Xrotation Yrotation
                        JOINT RightHand
                        {
                            OFFSET -26.964474 0.000000 0.000000
                            CHANNELS 3 Zrotation Xrotation Yrotation
                            End Site
                            {
                                OFFSET -14.186234 0.000000 0.000000
                            }
                        }
                    }
                }
            }
        }
    }
    JOINT LeftUpLeg
    {
        OFFSET 9.457489 0.000000 0.000000
        CHANNELS 3 Zrotation Xrotation Yrotation
        JOINT LeftLeg
        {
            OFFSET -0.000000 -40.941395 0.000000
            CHANNELS 3 Zrotation Xrotation Yrotation
            JOINT LeftFoot
            {
                OFFSET -0.000000 -37.782906 0.000000
                CHANNELS 3 Zrotation Xrotation Yrotation
                JOINT LeftToeBase
                {
                    OFFSET -0.000000 -6.147367 14.186234
                    CHANNELS 3 Zrotation Xrotation Yrotation
                    End Site
                    {
                        OFFSET -0.000000 0.000000 3.782995
                    }
                }
            }
        }
    }
    JOINT RightUpLeg
    {
        OFFSET -9.457489 0.000000 0.000000
        CHANNELS 3 Zrotation Xrotation Yrotation
        JOINT RightLeg
        {
            OFFSET -0.000000 -40.941395 0.000000
            CHANNELS 3 Zrotation Xrotation Yrotation
            JOINT RightFoot
            {
                OFFSET -0.000000 -37.782906 0.000000
                CHANNELS 3 Zrotation Xrotation Yrotation
                JOINT RightToeBase
                {
                    OFFSET -0.000000 -6.147367 14.186234
                    CHANNELS 3 Zrotation Xrotation Yrotation
                    End Site
                    {
                        OFFSET -0.000000 0.000000 3.782995
                    }
                }
            }
        }
    }
}
MOTION
Frames:    8
Frame Time:    0.010000
46.824291    89.381294    59.754265    -0.599112    -1.429011    4.268601    -0.699390    -6.994016    1.977499    1.040898    2.378940    0.652069    -0.014367    11.920338    -0.279934    0.362452    5.288353    -0.355891    -3.012510    4.359337    0.072260    -69.388542    43.607651    -8.874696    7.420307    -11.644629    -13.529104    -30.524754    -11.757030    3.649003    -1.531570    7.989384    -5.774656    40.774124    81.761787    36.521496    -21.374636    -23.681440    7.509019    35.036190    -21.690027    2.342401    2.603760    2.964326    1.198903    -2.055982    7.036146    -0.451886    3.002638    -9.529417    18.368212    0.000000    0.000000    0.000000    -3.617438    4.309145    0.854335    2.480340    4.377596    -0.519483    2.975921    -8.630553    -12.296827    0.000000    0.000000    0.000000    
46.821110    89.380226    59.753681    -0.603708    -1.430082    4.273765    -0.703033    -6.990251    1.984184    1.058777    2.365728    0.654033    -0.011441    11.942631    -0.290784    0.342917    5.277469    -0.362930    -3.032202    4.369940    0.066320    -69.371208    43.643356    -8.884855    7.440083    -11.663456    -13.514384    -30.530905    -11.774283    3.647452    -1.537056    8.312087    -6.004935    37.437363    81.702843    39.933353    -21.342505    -23.705288    7.400787    35.179550    -21.695324    2.467902    2.612459    2.964240    1.196527    -2.058950    7.034705    -0.435167    2.895848    -9.611282    18.391897    0.000000    0.000000    0.000000    -3.610970    4.313954    0.870869    2.484533    4.370781    -0.518061    2.986974    -8.637588    -12.328807    0.000000    0.000000    0.000000    
46.820335    89.381241    59.751320    -0.596706    -1.435565    4.284086    -0.706914    -6.991714    1.979832    1.057391    2.380540    0.652639    -0.013047    11.932125    -0.294389    0.342339    5.290324    -0.367109    -3.038448    4.357686    0.057239    -69.378746    43.663467    -8.871181    7.464993    -11.692963    -13.498896    -30.536617    -11.796892    3.628115    -1.528687    7.978882    -5.762745    40.661942    81.811890    36.640663    -21.414488    -23.694168    7.432888    35.047150    -21.705936    2.368680    2.610120    2.967558    1.186893    -2.065795    7.034759    -0.448041    2.992434    -9.527390    18.365110    0.000000    0.000000    0.000000    -3.613843    4.312880    0.860006    2.462542    4.404722    -0.508043    3.012954    -8.669027    -12.306837    0.000000    0.000000    0.000000    
46.817429    89.379433    59.749325    -0.599847    -1.426838    4.285535    -0.697820    -7.007349    1.983781    1.045310    2.387338    0.653944    0.023614    11.932919    -0.303822    0.293373    5.293623    -0.359581    -3.034746    4.359034    0.049609    -69.380508    43.664768    -8.865494    7.477002    -11.700984    -13.496001    -30.552122    -11.803008    3.623626    -1.523944    7.989801    -5.762736    40.830833    81.738548    36.452435    -21.352592    -23.670959    7.527592    35.070461    -21.675959    2.345330    2.612968    2.958612    1.185293    -2.060679    7.030129    -0.450842    2.895603    -9.597463    18.388542    0.000000    0.000000    0.000000    -3.612425    4.306655    0.872077    2.483775    4.380101    -0.508802    2.973042    -8.647025    -12.341270    0.000000    0.000000    0.000000    
46.817883    89.380608    59.748886    -0.594445    -1.433703    4.291096    -0.708477    -7.007199    1.990260    1.061658    2.379190    0.656103    0.013419    11.971300    -0.304086    0.298681    5.278554    -0.363152    -3.061134    4.372168    0.000490    -69.374130    43.598564    -8.849066    7.449813    -11.696535    -13.492010    -30.499857    -11.806932    3.648672    -1.512410    7.832312    -5.629453    42.620480    81.776459    34.614513    -21.395130    -23.666683    7.533894    35.006233    -21.678270    2.314314    2.604769    2.965333    1.195426    -2.054737    7.029984    -0.420560    2.882009    -9.595018    18.348040    0.000000    0.000000    0.000000    -3.617424    4.315947    0.863061    2.487518    4.376696    -0.504723    2.950232    -8.644597    -12.344520    0.000000    0.000000    0.000000    
46.815281    89.379707    59.747814    -0.594141    -1.433158    4.294773    -0.702510    -7.019056    1.986643    1.051944    2.397837    0.654839    0.014947    11.960544    -0.293850    0.293005    5.290138    -0.351305    -3.056549    4.365678    0.006144    -69.367218    43.497181    -8.840505    7.384730    -11.645151    -13.533975    -30.485609    -11.767177    3.675625    -1.521569    8.141232    -5.852298    39.317001    81.705116    38.005028    -21.341097    -23.672209    7.466033    35.065521    -21.678053    2.382223    2.607941    2.965123    1.181948    -2.057993    7.022598    -0.415696    2.991222    -9.517569    18.320038    0.000000    0.000000    0.000000    -3.620210    4.324373    0.868466    2.552581    4.311558    -0.732511    2.881063    -8.570405    -12.224010    0.000000    0.000000    0.000000    
46.814774    89.380722    59.746723    -0.593761    -1.436943    4.299765    -0.704573    -7.011167    1.990389    1.058171    2.387085    0.656015    0.000885    11.958947    -0.290945    0.315687    5.306298    -0.355413    -3.060801    4.384414    0.009297    -69.355690    43.486584    -8.861401    7.380005    -11.641308    -13.527426    -30.462111    -11.768500    3.694255    -1.507789    7.804078    -5.614056    42.858910    81.768082    34.363392    -21.382212    -23.633091    7.556670    35.024559    -21.638073    2.322961    2.608356    2.971839    1.177982    -2.058910    7.015660    -0.417227    2.885266    -9.592057    18.362614    0.000000    0.000000    0.000000    -3.614903    4.319680    0.859557    2.486969    4.372400    -0.536570    2.975339    -8.643376    -12.327650    0.000000    0.000000    0.000000    
46.812717    89.380722    59.743427    -0.590297    -1.429896    4.306357    -0.715609    -7.020523    1.984040    1.077523    2.393051    0.653699    -0.011386    11.974513    -0.303840    0.302240    5.285851    -0.369184    -3.079898    4.371932    0.014661    -69.356102    43.480099    -8.845246    7.371711    -11.644078    -13.534810    -30.477076    -11.770672    3.688269    -1.534389    7.975363    -5.737169    41.110519    81.722839    36.168396    -21.345150    -23.637211    7.518537    35.000256    -21.628527    2.402446    2.606437    2.958419    1.178510    -2.056877    7.018519    -0.421050    2.917737    -9.572190    18.347616    0.000000    0.000000    0.000000    -3.617411    4.314337    0.853006    2.484417    4.367058    -0.551369    2.968564    -8.635384    -12.299519    0.000000    0.000000    0.000000    
